<mxfile host="Electron" modified="2024-03-05T09:54:28.497Z" agent="Mozilla/5.0 (X11; Linux x86_64) AppleWebKit/537.36 (KHTML, like Gecko) draw.io/23.1.5 Chrome/120.0.6099.109 Electron/28.1.0 Safari/537.36" etag="uRyc3S8sLf_5b9BM6cpI" version="23.1.5" type="device">
  <diagram name="Page-1" id="rO-djkeFIA_-pk0J-o7Q">
    <mxGraphModel dx="1382" dy="830" grid="1" gridSize="10" guides="1" tooltips="1" connect="1" arrows="1" fold="1" page="1" pageScale="1" pageWidth="1169" pageHeight="827" math="0" shadow="0">
      <root>
        <mxCell id="0" />
        <mxCell id="1" parent="0" />
        <mxCell id="fUgNVL8fGhh81weAElvt-1" value="" style="shape=image;verticalLabelPosition=bottom;labelBackgroundColor=default;verticalAlign=top;aspect=fixed;imageAspect=0;image=data:image/jpeg,/9j/4AAQSkZJRgABAQAAAQABAAD/2wCEAAoGBxIRExETExIWExEWGBESGRgZFhEbFhYWGBkZGxYWGBgaHisiGiAoHRYWIzQkKCwuMT4xGi5DPDcwOyswMS4BCwsLDg4PHRERHDAoICgzMC48MTAwOzA7MDs7OzAuOzIuMDAzMDAuMDA5MC4wOC4uNDEuOTAwMDAuMS45PDIuPP/AABEIAJgBTAMBIgACEQEDEQH/xAAbAAEAAgMBAQAAAAAAAAAAAAAABAUDBgcBAv/EAEcQAAIBAwIDAwYKBwYGAwAAAAECAwAEERIhBRMxBiJRFUFhcZPRBxQjMjNTVHOBkRZCUoKhstIkcpKiwsNDYqOxs8E0Y+H/xAAZAQEBAQEBAQAAAAAAAAAAAAAABAMFAgH/xAAoEQEAAQIDCAIDAQAAAAAAAAAAAQIDBBEzEiExMkJRgfAjQyJBYRP/2gAMAwEAAhEDEQA/AOzUpSgUpSgUpSgUpSgUpSgUpWtce7ZWPDoyZ7ga8yERr3pW77bBBuBnI1HA260Gy0qAvG7YgH4xDvv9LH76+vLVt9oh9rH76CbSoXlq2+0Q+1j99PLVt9oh9rH76CbSoXlq2+0Q+1j99PLVt9oh9rH76CJxLiEy3EFvCI9UkVzOTJrx8k8ChBp6Z5/XfGnoar7TtijAM6lSUtTygF1LLLJNGU5jMEI1QOATp6dTqAEniDWk0iS/HFjkRJYgUmhBKSFGdTnON4k3GDt1qIeH8PClI7lIlaKC3IWWBsxRGXShEoYNnnSZJyT1znegnQ8fJe6U28oEBjGcxd/WiN0LDSRr85xheo6VHPbS20BwJWTQ8rlUyIkSRo5Gc5x3XVgQMk4JGQCRGfhXDypRbsImLbC86Bgr2+kRS/KBizARoO9lTjOM717FwrhqxSxfGEKSxzwPmePJSWSSSTfzHVK+9BYz9p4VEjFZOWj8nmBRoebmLFylOc6uYwXJAXY74BImcI4rHcxl484DPGwOMq6kqynBIO46gkHzE1SS2Fg3NU3gEbyc8IJodMc3MExmTbOrmKGwxZeu2CQbSx4hbRoFN3HIRnLNJbhj6wgVR+AFBbUqF5atvtEPtY/fTy1bfaIfax++gm0qF5atvtEPtY/fTy1bfaIfax++gm0qF5atvtEPtY/fULi/am0t4ZJnmRkQBiEeNnxkDZc79c0F1SqfgvHba90S21wkselshW3BJTGpDupG/UA7+mrigUpSgUpSgUpSgUpSgUpSgUpSgUpSgUpSgUpSgUpSgVrfHex1lxGMi4gUtqkAcd2Ve+26uN9zvg5G/StkrBaZ0nJz3pPPnbU2B+AwPwoMKcJtwAORFtt9Gnur68l2/wBRF7OP3VLpQRPJdv8AURezj91PJdv9RF7OP3VLpQRPJdv9RF7OP3U8l2/1EXs4/dUulBE8l2/1EXs4/dTyXb/URezj91S6UETyXb/URezj91PJdv8AURezj91S6UETyXb/AFEXs4/dTyXb/URezj91S6UETyXb/URezj91PJdv9RF7OP3VLpQRPJdv9RF7OP3U8l2/1EXs4/dUulBE8l2/1EXs4/dUPjHZu2uYZIXiUJIArFFRWxkHAYDbOMVb0oKfg3A7Wy0RW0CxLof5o3bBQEux7zt83cknarisLZ1r+zpfPTrlcfw1VmoFKUoFKUoFKUoFKUoFKUoFKUoFKUoFKUoPKVovwu8auLSG3a3lMTPIysQEOQEJx3gfPUD4Le2Ekgufj12DgxcvmGJOuvVjAGei152t+TT/ADnY2nSqVV/pJZ/aofaJ76fpJZ/aofaJ769M1pUeyxpOM41SdfHW2f45qH+kln9qh9onvqTwy5WWMOjKyFpMMpBUgOwBBHXpQS6UpQKUpQKUpQKUr51DOPP1oIt7fpE0KOSDK7Rr4aljeQ5PmGmJq+I+MW7EBbiJiW5YAljJL4zoAB3bG+OtQuN2vxiWBFcK8DNOwIbdJYLmBdLYwSGfJHmA36jNbD2NKjAMYxFwmIYXobOZpXI26Nlceld6DYV4rAS458eqMFnHMTKKCQWYZ7oBBGT4VivOMRRSQxk5aWR4diuEZYXmOvfu9yM/mPNvWqQdkp7iKeOTlwqx40iHSxlJuppArONhpC6W2JzlemnefN2XmlkaWYwktPJO0Y5hQq1k1ryy2ATuck4G1BfR8WicrodXRllk5ivEUAjKBsnVn9cbgEDG5G2fryzb8sS/GIuUc4fmR6Djrhs42rWp+yM8qpzJlysc8agl5MBpbWWONnIUyqPixUkgMQ/nxkzLXs25uBcS8rUZnnZFDMq5tlgUKzAam7uS2B1xjbJDZEcEAg5B3B8R4191XdnOHm2tbaBmDNDFFEWGcEogUkZ821WNApSlBHYDmJvvpkwPRlMnP5fnUisDn5RNv1X38N02/H/1WegUrysUcysWCsCVOlsEHScA4PgcEfnQZqUpQKUpQKUpQKUpQKVF4lfJBG8smdCAE4BJ3IAwB13Ir5XiCYBf5LJwA+FJ3A2BPiwH40EylRjeRBWfmJoUkM2pdKkbEMc4Bz41Cve0dpCZhJOimGJZ5BudMTatLDA72dDbDJ6bbjIW1KjpeRkoBIhLgsoDLlgOpUZ3Hqp8aTAOtcEAg5XBBIAI36ZIH40HPvh2+gtPvX/kNaP2QtDIJvQU/jqrdvhwkVrezZSGUysQQQQQYzggjrVB8FsIYXXoMP8ArrPqVxoe92fyUfCnko+Fbh8UHhT4oPCtEjT/ACUfCuk9i4tFnAvhzf8AyOapvig8K2XgaaYYx/e/mNBOpSlApSlAqBxC7aJoOnLeQRsT1XUraCP3wi4/5/RU+qvtTtazvjJiXnj+9CRKn+ZBQfXE5Wjkt3B+TMhikGdsSKQjY8eYsaj0Oa+OKDRPazDzs9u5zsEkXUpx5zzIolH9807U4FrO535S/GB/ehIlX+MYr3tMP7NI5/4RjuPYyLL/ALdB8cTXRPaSjztLbtvsElTWCR5zzIIlH98+JrJdcYRJo4NLGR1aTIMYARSAzHWwLYzuFDEefGRn57Sr8gzE45bwT7Z6RSpIR+IQj8a++J8HjuGjaQuVjaOQIGwhdG1IxGM5B8CM9DkbUFZH20gKBzHMFdI5osomZ4nkjjWSNQ5ONU0ezaWw42rMe1Sd1RBO0xM+YQsPMQQ6OYzHXoIHMjxpYk6xgHfCDsjboEX5RljWKOMM5PKiikSRIkPXTqjjznJIQAnYVmuezkTuZA0kchMp1o+G0yhBInQjSeVGfEFcgigiN2zt8O4WRoVW3bmAII2M4jMCAswOp+avUYH6xUYJtOD8VS6jMkeQAzxsDoJVkOGGVJU+sEioo7MW4jeJUKIxt2AViNBtxGICnhp5SHz9N81ZWtvoUKXaQ795tOo5/ugD8gKCRSlKBSlKDA3z1320vtnruu+PR/7rLmsLka08dMmPDGUz/wCqp+2nG/ikB0n5V8ono/ab8B/EivsRMzlDzVVFMTVKm7b9rTGWt4Gw42dx1X/kU+PifN6+kn4Lf/jzfek/5ErnfX0nznxrovwXD+zy/en+RKpuURTRlCCzdqrvZz/W30pSpXRKUpQKUpQKUpQVfaXh73NtNCmnW4AGosq7MDgsoJHTqAapOJ9mJblRrjhjItuJW4XmyyhZLjk6HDPGDjEcmdtsjGcnG30oNRvuycgdXg5QCPbSiLJjRzHDLEQzLG2nHMRgdLfRgYGxGGfsfIUuI0WFEnsRZ4LuxhkUzldJMY1p8uBnukCMYB826UoNTHZ+Y3HOkjiKO1rKwWeUGF4QMLHiIcxcgncp89sjBOYCdjbl40il+L8uKOG3XDSNzI47mKUs6mMBdSRkaO8M+cg7b3Sg5r8OKBbe0AAAEr4AGAO4egqh+CuUKLrPnMH+5V/8O30Fp96/8hrSuxt3yxN6TH/DV76z6lcaHvd0z40K8knVgQehBB3I2Ox3G4rVPKxp5WNaJF3Dw6ONgUluF3Bx8YnddjnGmVmAHqxWy21tcSRo8FyIgQQEeFJEBDNvsyt+Gr8q5/5WNdF7HTa7SFvHmf8AkYUGdfjawnPInuAdvpYImXPn+lZSBnx38K+LO9uSyrLaiMHOXSZJEU4z+sEc56bL5/NVrSgp7ntFHExWSK5XBI1C1uZEOP1tUSMAPXipM/GbeNYmkmSIS/M5jqhfbOAHIJOD061Pr4kjDDBAI8CAR+VB8wzK4yrBl8VII/MVF4+QLa5z05U2fVobNe2vCYImd44Io3cBXZERWYDoGKgE9TVF2h7OQpDIFe4Uy6INPxm6aMmZljAMbuyY7++ANs0FtxzayuNX2ebV7M5zWHtjnybfZ6/FbrPr5T1G7aWcrwzBLkxrIqW3LMcbIWnflA5wHBJkA+djb117x1bhbKdJpIJZZClupWOSGM85kiVWBeQg6pDuPEbbbhN7XkixviOot7kj1iNsVbVq/G7+65LJPaqglaK3LxTrIq86RYlzrSNurjoPPVlecfSFmWSG5wDjUlvPKp2zkclWOPWBQW1KrpuN26RxyyTJDG5Cq0pEeWOcLiTBzsduu1Sra6SQZR1ceKsrD8xQZ6UpQKUpQKUpQYGzrX9nS+enXK4/1Vy7tzxLn3UgBykXyS+sfPP+LI/dFdG41dCFXlPWOKZgPHGg/wDcKPxrj2Sdyck7k+J85qjD075lDjK90UvUFdF+DMfIS/en+RK59GK6D8HkipbzMzBVEhJJIAA0JuSela3+RNg9RttKxxSBgGUhlIyCCCCPEEdaw3t7FCuuWRIkyF1OyquScAZY4yTUTrpVK8r2gUpSgUpSgUpSgUpSgUpSg5t8Ov0Fp96/8hqp+B7gkF0Lvnx69Bh096RcauZn5pHgKtvh1+gtPvX/AJDWD4B+l967f/drPrV/R73bj+hFh9n/AOpP/XT9CLD7P/1J/wCur+laJFB+hFh9n/6k/wDXVrw+xjgjWKJdMa5wMscZJJ3JJ6k1KpQKUpQKUpQKqr35W5gjHzYgbh/WQ0cKkeBJlb1xCpt5cCJHdgxCgnCgsx9CqNyT0AqHwqAxo8kxCyuTNIc91NgAgY/qoihc7ZwT5zQecSPMntofMpa5fw0oNManwJkkVh92a+eKnXPawj9p7hxjqkS4Az5jzZISPQp/D3gUZfmXLghp9JUEYZYUzyUIIBB7zOQdw0hHmr54Kea81z1WTTFH1xyYi2HA6d92kYEdVKeFB98XOuW0h2OqQzuD15cK5DD1TNb/AJ1a1T8LPNnnnzlF/ssfQj5Njz2B6gmQ6CP/AKBVxQfLKDsRkVEh4TAkhlSCNJSugusaByuQdJYDJGQDj0VNpQUp7LwgkpJcxE/sXV2FHqQyFB/hqTf2UrlTFctFpBBXRC6MfFtS6s+phVjSgrbWO7RJOZJDNLvy9MckK9Ng/fkPXzj8qxWl5e6lE1rEoJALRXGsAbd4h4oz47DNW9KCqveNLCzK8NwVGnvxwSyqc46CIM22cHKjpXl12ht47c3Lvy4cNgyBoiSM9zTKFIYkEAEb1bVE4lZJcRSwyZMciPG4BIJRwVYZ82QTQaVxztfbX9gZLZw2vSjKdpYiXRtDrnbIVvEHTsSK0xBW1dtezVpYwwLbQRw5dgSBmRgF21SHLMB6T561aOrbEfg5OMn5PDPEK2rg9skljIH5oC3EcgaKIyujx8t0YxhWLrqUZGk9fN1GsRCt87CXCR28jOyook6sQAMqmNzS/wAjzg9WPKB8cvwCGhlRpIrURrFE4jDpdS85yBkQloWhcqzZ3IGoqazHhU8pt5JDOzjiFy2NcirHApuViIVcYXRy9/Pq671sUnG4VcJrUjlPcl9celYxjDHvZIIJIIBGFOSNswODdsILhGkAeNFhiusuYccuVpVTdHbDZhbIPTIHWonYUSXl83OYR3UcZFoZEKzNImLgi4ERZRqblYzygVx8zJ3qWZLlp4wslzHCRatCzw3DZUSMbhZgF7pZNK5mwQCCO8GrZrfikbJCzMsbTKrIjPFqJIB0jSxDEZ/VJHpqLw7tHDPCk0ZyGEJKaouZHzSAokGrCnvdM+bbNBcUqE/FYFDkzxAIQjkyIAjHorEnun0GvryhDqZOdHrRdbLrXUq9dTDOQMec0EulVdz2gtYwrNcRBWk5AOtSOZjOgkbA4656VaUClKUClKUClKUHNvh1+gtPvX/kNYPgH6X3rt/92s/w6/QWn3r/AMhrT+wvF7i3E/IfRqMeruo2casfOBx1NZ9Sv6Pe7vNK5Z+l/Efrh7OH+mn6X8R+uHs4f6a0SOp1EncmSJASBiSQ+nThQD+L5/drm/6X8R+uHs4f6a3LshdyzIskx1SGNcnCj/izDoNhsqUFs7EzKoPdVGZh4liAmfykoWJl0gkKiaiPEucL+QR/zFeW28szeHLj/ALr/wBw0st3nbxcKPUqIMf4tX50HqyFpWAPdRRn0sxz/AL/AJ6l1D4buJG87SS/5Dyx/CMVMoFQuJ2AnVUYkR6lZ1+sVcnlsf2SdJI84BB2JqbSgq+MrJIFgTUvNyHkGRy4hjXhh0dgdK75GS2+kivOK3BijSOEBZpPkYhpyqbbuR+yigtjbOAOrCrWoi2a80zHJcqIxnoi5yQvhqOCfHSv7IoPbCzWGOONM6EVUGSSxAGMsx3JPUk7k1KpUW84jDCMyzRxjxd0UfmxoJVKrZeNwCJZlcyxOcK0KSTauvzRCrE9Dv6KcO4uJ2wsM6rgnVJE8Q822mTD53/Z81BZUqklvr4n5OziAz1ludJx46Y4pP8AuKlcQhum0cmaKIYOvXC8jE7Y0ESoF8/UGgsaVXW1lKFdZLh5C+wYLEnL2x3NK/j3iawW/ZuFHWQvcSOpDDmXN065HQ8svo/y0FhdXscQzJIkY8XZVH5k1GPG4OVz0lEsOSoaINKCQcEARhidwRtX2eE25kMpgiMzYBkMcfMIGwBbGTjFTAAOm1Bzz4QuLJOkGiOZQHfvSQTRAjTuAsqqx83mrUo66P8ACbDqtVb9iSNvzDL/AKq5ulW2OVycZHyJcNbd2e4Wbm0MYKgLd2sx1DIKxSQyMuPSEI/GtQiNbb2e4i8FrrQKS13ZwnUCRplkhjcjBG+lzj0+NL/I84PVjytU7NMJ5HIR42lkuEbXKrxu8PJwYgNL4Ukaiw7pA090GoadjpVWHEiFooeFxAZdVd7QzassASobnAg4JBXODV1wrtJBcvy4yclDKhOjEkYIUuuCSACy/OAPeG2DXwnaeJl1Kkj6pWgjAEZaWRdetUGvu45UhOvTjTUTsInDuzskEyvGkOh1VZFaSZ+WRPLMzxMy5cs0xyDpAKqR0xUROxjrFbRhow0UdrG5AbDtDcwzs3Tz8t+vnf11Yt2wtwMhZWUK0jkRnESpI0UhkydirowIGTsSAQCa2Gg0+XsxcaZQhjQBxJAoll/s8hEwknRzGT3ud9CwZAARnDbfPFOyt1OZQ00ZUpdIjd5cc635QHLVcDDd4nUxOfNgCtypQavc9m3DB4RGCrWTqh1KhMCurAkKdOVcYIB+bWz17SgVjEgyVyMgAkZGQDnBI9OD+VaRxnhsjXzT8v5NLnh+p1ibnhdIGY5c/R6yiyLj5hfcVhtry/CSy5KSNyhMqws0sR58aO6DkqCEhM2ATJkKpGRnUHQaVpcl/dmZEilk5OmFkkliZTMxmkEyuqwb4RYwMcvZtWWzkVVzxG8uILxY5riRjFxpSqwqFj5UjpbCJ1jBZmChcBmJy3nXIDpNK02G/umuERZWEQNroLxtiaJgOczBYfn5Lj56adKkjBOqEONXzxRopmWYRQLK3xc92ZrqGOQjVHpYiMyEgZAG/TBoI3w6/QWn3r/yGtW+Dm15guPQYv46/dWyfDXEUtrJS7SESsC7adTYjO7aQBn1ACqf4JsYus+MH+5WfWrjQ97th8ljwp5LHhVzkUyK0SKbyWPCto7LRaEK+CIfzkl//a59fcT4p8ft1FuI7LWykg6w4KsA0roCUxkEDAGepPWt3t7e4aReVPHFG8Q2MJeQmOR8kOZAo+lH6poLqx+fcfeL/wCKKveHHaT7yT/vkfwIqvtuHODNDJcSyFxHLr+TjcblSqmJVwAEX097rXxwjgMMM0hHNZwVkVpJ7mTAddB+kcjOUf8AOgzxcWggjJmnihAebJeSNB9I/wC0RWW645DHHHNl5I5MFDDFNNqBGQQIlY4x5+lfHDuHwpLORDGJC5csEUOwkAbUWxk97WP3a+bfjYeW4j0aUgflvIzxgA8pJSQuc6dMi7+vwoM/D+Kc4tphmRQMhpIzGG9AV8Nn1gVFN7fsRotIVXzmW5IYfuxxOD/irBc9rrdJIl1jlSLOxkyw0mIRtjTjJysurPguem9WDcat+YsXOTmNpAGcglxqRdQ2BI3AzkjpQecQt7p2HJniijxuGhaSQtnqrc1VAxjYqa9g4fIEdJLiSVnOdeIkZBgd1OWowNupyd+vTFjSgqbTs7BG4kzM7g5BkubqQA+IR5Co/AVJXhUAdpRDGJWILPy01sQAAS2MnYAfhU2lB5XtKUClKUClKUClKUFR2ttObaXCdToLD1phgPzWuRLXcjXGeN2Bt55ofMrHT/cO6f5SKqw9XGHPxtHCrwxxmt37F2CT2zK+cLcxTjBx34jFIn4akGa0RDXRPg0PyEv3p/kSvd/kYYPUXHB+DJbDSjvy1GlIzy9Ma5yFUhQxA6DUTsKiN2UiLtLzZeeXjkWXMYdCiyKuAE0t3JpVJdWJDbk4GL+lROuo17KwBJU7+JYpIHOrvMJHd5HJx89nlck9N+lXlKUClKUClKUClKUCsFrbJGumNQi5dsKABqZiznHiWYk+k1npQKUpQc2+Hb6C0+9f+Q1qvweXfLE/pMX8Nfvravh2+gtPvX/kNal8H/Ap7sT8koNBi1amI+drxjAOehrPqVxoe923eVh408rDxrH+gd94w+0f+in6B33jD7R/6K0SMnlYeNbTwebMNrL5tTxn+67so/ziOtS/QO+8YfaP/RW5cA4U8VmlvKRrAkBKkkDUzEEEgbgEfjQTbzuyQyebJib0B8aT/jVB+9S77kkcnmPyTepyNB/xgD9815D8tEVfZsGN8eZxsxH47g+o17bnmxsjjvDMTgbb43I8AQQw9BFB5d9x0k/VPyb+onuMfU23qcnzVU3PZXW18Gkj5V3zNY5XyyB4EgISXXgDEYbdD1NW9rl0aOQZZco2Rs4PRvUw6jxyPNX3Zo6gqx1BThWzuy+bV6R0PjjPnxQVacDmd4pJ50d447mEaISilZREASDI245eeu+rzYqJB2RKELzgYDLaXDoY++01ukSoVk14VCbeMldJPXfB22mlApSlApSlApSlApSlApSlApSlB5WkfCZwjUqXKjdMRvj9gnut+BJH73ord6xzRK6srAFWBUg9CDsQa9U1bM5s7tEV0zTLiKmui/Bgf7PL96f5ErUO1PAHs5cbmFiSj/6GP7Q/j19W2/Bd/wDHl+9P8iVTdqibecOfhqJpu5Tx3twpSlSOoUpSgUpSgUpSgUpSgUpSgUpSgqO0PZy2vlRLhC6oSygPIuCRjOUIPSvns72YtbDmfFoynM06sySvnTnT89jj5x6UpTKDbq4LmlKUClKUEZYCsjOD3WA1D/mGAGH7ux9Q8K++SAxcDvEAHruBnG34mvaUGWlKUClKUClKUClKUClKUClKUClKUClKUCvK9pQRL6xjnRo5FDKeoP8AAjwPpFQuzvA1s1kRXLK0hkGRuoKqNJPn+b12pSvuc5Pk0U57X7XFKUr4+lKUoFKUoFKUoP/Z;rotation=0;" vertex="1" parent="1">
          <mxGeometry x="111" y="320" width="332" height="152" as="geometry" />
        </mxCell>
        <mxCell id="fUgNVL8fGhh81weAElvt-2" value="Eau&amp;nbsp;" style="rounded=0;whiteSpace=wrap;html=1;strokeColor=none;" vertex="1" parent="1">
          <mxGeometry x="380" y="384" width="60" height="66" as="geometry" />
        </mxCell>
      </root>
    </mxGraphModel>
  </diagram>
</mxfile>
